<?xml version="1.0" standalone="no"?>
<!DOCTYPE svg PUBLIC "-//W3C//DTD SVG 20010904//EN"
 "http://www.w3.org/TR/2001/REC-SVG-20010904/DTD/svg10.dtd">
<svg version="1.0" xmlns="http://www.w3.org/2000/svg"
 width="300.000000pt" height="300.000000pt" viewBox="0 0 300.000000 300.000000"
 preserveAspectRatio="xMidYMid meet">
<metadata>
Created by potrace 1.10, written by Peter Selinger 2001-2011
</metadata>
<g transform="translate(0.000000,300.000000) scale(0.100000,-0.100000)"
fill="#000000" stroke="none">
<path d="M1478 1823 c-9 -10 -35 -66 -58 -125 l-41 -108 -102 0 c-105 0 -141
-10 -161 -43 -9 -15 -3 -25 40 -65 27 -26 70 -63 94 -83 l44 -35 -27 -102
c-32 -120 -33 -143 -8 -166 18 -17 21 -17 53 0 18 9 68 41 111 70 51 35 84 51
95 47 9 -4 49 -28 87 -53 39 -26 85 -55 103 -64 32 -17 35 -17 53 0 26 23 24
40 -12 155 -17 54 -29 105 -26 113 3 8 42 42 86 75 98 75 111 95 82 125 -19
18 -35 21 -136 24 l-114 4 -30 76 c-67 166 -94 198 -133 155z m42 -14 c0 -6
21 -67 47 -135 l46 -123 139 -3 138 -3 -110 -80 c-60 -44 -110 -82 -110 -85 0
-3 20 -65 44 -138 23 -73 42 -132 40 -132 -2 0 -58 36 -125 80 l-121 79 -119
-79 c-65 -44 -120 -80 -122 -80 -2 0 14 61 35 136 22 75 38 137 36 138 -2 2
-50 38 -107 82 l-104 79 140 3 139 3 49 134 c44 119 65 159 65 124z"/>
<path d="M1465 1632 l-41 -107 -107 -3 -107 -3 77 -61 c43 -34 80 -63 82 -64
4 -3 -40 -170 -55 -208 -4 -12 28 5 94 49 l100 67 93 -61 c51 -34 94 -60 95
-58 2 2 -10 45 -26 97 -16 52 -30 100 -30 106 0 5 36 37 81 70 l81 59 -103 5
-103 5 -41 102 c-22 56 -43 104 -45 107 -3 2 -23 -44 -45 -102z m80 -55 l30
-82 73 -3 73 -3 -60 -44 -61 -45 29 -80 c15 -44 26 -80 24 -80 -2 0 -35 22
-74 49 l-70 49 -71 -49 c-39 -27 -73 -48 -74 -46 -1 1 6 34 17 72 10 38 19 75
19 81 0 6 -25 29 -56 52 l-55 41 78 3 78 3 30 82 c16 46 32 83 35 83 3 0 19
-37 35 -83z"/>
</g>
</svg>
